<svg xmlns="http://www.w3.org/2000/svg" viewBox="0 0 100 100" width="100" height="100">
  <defs>
    <linearGradient id="glossyRedFav" x1="0%" y1="0%" x2="0%" y2="100%">
      <stop offset="0%" stop-color="#E51C1C" />
      <stop offset="100%" stop-color="#800202" />
    </linearGradient>
    <linearGradient id="shineGradFav" x1="0%" y1="0%" x2="0%" y2="100%">
      <stop offset="0%" stop-color="#FFFFFF" stop-opacity="0.3" />
      <stop offset="35%" stop-color="#FFFFFF" stop-opacity="0.08" />
      <stop offset="100%" stop-color="#FFFFFF" stop-opacity="0" />
    </linearGradient>
    <g id="f_p_fav">
      <rect x="0" y="0" width="18" height="18" rx="4" fill="none" stroke="#FFA6A6" stroke-width="3" />
      <rect x="5" y="5" width="8" height="8" rx="2" fill="#FFA6A6" />
    </g>
  </defs>

  <rect x="2" y="2" width="96" height="96" rx="22" fill="url(#glossyRedFav)" stroke="#600101" stroke-width="1.5" />
  <rect x="3.5" y="3.5" width="93" height="93" rx="20.5" fill="none" stroke="#FF7E7E" stroke-width="1" opacity="0.25" />

  <use href="#f_p_fav" x="12" y="12" />
  <use href="#f_p_fav" x="70" y="12" />
  <use href="#f_p_fav" x="12" y="70" />

  <g fill="#FFA6A6" opacity="0.95">
    <rect x="36" y="12" width="4" height="4" rx="1" />
    <rect x="44" y="12" width="4" height="8" rx="1" />
    <rect x="60" y="12" width="4" height="4" rx="1" />
    
    <rect x="52" y="16" width="8" height="4" rx="1" />
    <rect x="36" y="24" width="4" height="4" rx="1" />
    <rect x="60" y="24" width="4" height="4" rx="1" />
    <rect x="44" y="24" width="4" height="4" rx="1" />

    <rect x="12" y="36" width="4" height="8" rx="1" />
    <rect x="20" y="36" width="4" height="4" rx="1" />
    <rect x="24" y="40" width="4" height="12" rx="1" />
    <rect x="12" y="48" width="8" height="4" rx="1" />
    <rect x="12" y="56" width="4" height="4" rx="1" />
    <rect x="20" y="56" width="8" height="4" rx="1" />

    <rect x="70" y="36" width="8" height="4" rx="1" />
    <rect x="84" y="36" width="4" height="8" rx="1" />
    <rect x="76" y="44" width="4" height="4" rx="1" />
    <rect x="80" y="48" width="8" height="4" rx="1" />
    <rect x="70" y="56" width="4" height="8" rx="1" />
    <rect x="80" y="56" width="8" height="4" rx="1" />

    <rect x="36" y="72" width="12" height="4" rx="1" />
    <rect x="36" y="80" width="4" height="8" rx="1" />
    <rect x="44" y="76" width="8" height="4" rx="1" />
    <rect x="56" y="72" width="4" height="4" rx="1" />
    <rect x="52" y="80" width="8" height="4" rx="1" />
    <rect x="64" y="76" width="4" height="8" rx="1" />
  </g>

  <path
    d="M 45,34 L 45,66 L 68,50 Z"
    fill="url(#glossyRedFav)"
    stroke="#FFFFFF"
    stroke-width="5.5"
    stroke-linejoin="round"
    stroke-linecap="round"
  />

  <path d="M 2,24 A 22,22 0 0,1 24,2 L 76,2 A 22,22 0 0,1 98,24 Q 50,28 2,24 Z" fill="url(#shineGradFav)" />
</svg>
